<svg width="13" height="13" viewBox="0 0 13 13" fill="none" xmlns="http://www.w3.org/2000/svg">
<path d="M3.15487 1.96733L6.50021 5.31267L9.82821 1.98467C9.90172 1.90642 9.99027 1.84383 10.0886 1.80064C10.1869 1.75745 10.2929 1.73456 10.4002 1.73333C10.6301 1.73333 10.8505 1.82464 11.013 1.98717C11.1756 2.14971 11.2669 2.37015 11.2669 2.6C11.2689 2.70626 11.2492 2.8118 11.2089 2.91016C11.1687 3.00853 11.1088 3.09763 11.0329 3.172L7.66154 6.5L11.0329 9.87133C11.1757 10.0111 11.2595 10.2003 11.2669 10.4C11.2669 10.6299 11.1756 10.8503 11.013 11.0128C10.8505 11.1754 10.6301 11.2667 10.4002 11.2667C10.2898 11.2712 10.1796 11.2528 10.0766 11.2125C9.97366 11.1722 9.88022 11.111 9.80221 11.0327L6.50021 7.68733L3.16354 11.024C3.09031 11.0996 3.00283 11.16 2.90614 11.2017C2.80945 11.2433 2.70548 11.2654 2.60021 11.2667C2.37035 11.2667 2.14991 11.1754 1.98738 11.0128C1.82485 10.8503 1.73354 10.6299 1.73354 10.4C1.73152 10.2937 1.75123 10.1882 1.79147 10.0898C1.83171 9.99148 1.89163 9.90237 1.96754 9.828L5.33887 6.5L1.96754 3.12867C1.8247 2.98892 1.74094 2.79969 1.73354 2.6C1.73354 2.37015 1.82485 2.14971 1.98738 1.98717C2.14991 1.82464 2.37035 1.73333 2.60021 1.73333C2.80821 1.73593 3.00754 1.82 3.15487 1.96733Z" fill="#FFC099"/>
</svg>
